<svg xmlns="http://www.w3.org/2000/svg" width="29" height="33.97" viewBox="0 0 29 33.97">
  <defs>
    <style>
      .cls-1 {
        fill: #fff;
        fill-rule: evenodd;
      }
    </style>
  </defs>
  <path id="Apple_logo" data-name="Apple logo" class="cls-1" d="M1066.23,2121.07a7.656,7.656,0,0,1,3.85-6.47,8.5,8.5,0,0,0-6.52-3.37c-2.78-.26-5.42,1.56-6.82,1.56s-3.58-1.52-5.88-1.48a8.821,8.821,0,0,0-7.38,4.26c-3.14,5.2-.8,12.91,2.26,17.12,1.5,2.07,3.28,4.39,5.63,4.3,2.26-.08,3.11-1.39,5.84-1.39s3.49,1.39,5.88,1.35c2.43-.04,3.96-2.1,5.45-4.17a18.329,18.329,0,0,0,2.47-4.84,7.552,7.552,0,0,1-4.78-6.87m-4.49-12.63a7.209,7.209,0,0,0,1.85-5.42,8.123,8.123,0,0,0-5.24,2.57,6.864,6.864,0,0,0-1.89,5.26,6.717,6.717,0,0,0,5.28-2.41" transform="translate(-1042 -2103.03)"/>
</svg>
