<?xml version="1.0" encoding="utf-8"?>
<!-- Generator: Adobe Illustrator 22.0.1, SVG Export Plug-In . SVG Version: 6.00 Build 0)  -->
<svg version="1.0" id="Layer_1" xmlns="http://www.w3.org/2000/svg" xmlns:xlink="http://www.w3.org/1999/xlink" x="0px" y="0px"
	 viewBox="0 0 72 72" style="enable-background:new 0 0 72 72;" xml:space="preserve">
<style type="text/css">
	.st0{fill:none;stroke:#FFFFFF;stroke-width:2;stroke-linecap:round;stroke-linejoin:round;stroke-miterlimit:10;}
	.st1{fill:#FFFFFF;}
</style>
<polygon class="st0" points="45.7,22 35.6,31.2 47.2,31.2 37.4,39.1 "/>
<g>
	<path class="st1" d="M41.4,18.2c6.8,0,12.4,5.6,12.4,12.4c0,6.8-5.6,12.4-12.4,12.4c-6.8,0-12.4-5.6-12.4-12.4
		C28.9,23.8,34.5,18.2,41.4,18.2 M41.4,16.2c-8,0-14.4,6.5-14.4,14.4c0,8,6.5,14.4,14.4,14.4c8,0,14.4-6.5,14.4-14.4
		C55.8,22.7,49.3,16.2,41.4,16.2L41.4,16.2z"/>
</g>
<line class="st0" x1="31.6" y1="40.4" x2="19.3" y2="52.7"/>
<g>
	<path class="st1" d="M36,10c14.3,0,26,11.7,26,26c0,14.3-11.7,26-26,26S10,50.3,10,36C10,21.7,21.7,10,36,10 M36,8
		C20.5,8,8,20.5,8,36c0,15.5,12.5,28,28,28c15.5,0,28-12.5,28-28C64,20.5,51.5,8,36,8L36,8z"/>
</g>
</svg>
